# xmcd
#
# Track frame offsets: 
#        150
#        13698
#        26813
#        37453
#        56428
#        67295
#        78716
#        95382
#        111124
#        123705
#        137540
#        158432
#        178807
#        196596
#
# Disc length: 2895 seconds
#
# Revision: 0
# Processed by: cddbd v1.5.2PL0 Copyright (c) Steve Scherf et al.
# Submitted via: ExactAudioCopy v0.99pb3
#
DISCID=c40b4d0e
DTITLE=Various Artist - Dark as a Dungeon (Songs of the Mines) [CD]
DYEAR=2010
DGENRE=Bluegrass
TTITLE0=Bill Harrell and the Virginians/Green Rolling Hills
TTITLE1=Country Gentlemen, the/A Miner's Life
TTITLE2=The Seldom Scene/Paradise
TTITLE3=The Steep Canyon Rangers/Call the Captain
TTITLE4=Keith Whitley and Ricky Skaggs/Dream of a Miner's Child
TTITLE5=Wildwood Valley Boys/Black Dust Fever
TTITLE6=Valerie Smith and Liberty Pike/In Those Mines
TTITLE7=Ralph Stanley II/Daddy's Dinner Bucket
TTITLE8=Larry Sparks/Digging in the Ground
TTITLE9=Randall Hylton/Coal Town Saturday Night
TTITLE10=David Davis and the Warrior River Boys/The River Ran Black
TTITLE11=Blue Highway/West Virginia's Last Hand Loader
TTITLE12=Perfect Strangers/The Hermit Miner
TTITLE13=James Alan Shelton/Dark as a Dungeon
EXTD=
EXTT0=
EXTT1=
EXTT2=
EXTT3=
EXTT4=
EXTT5=
EXTT6=
EXTT7=
EXTT8=
EXTT9=
EXTT10=
EXTT11=
EXTT12=
EXTT13=
PLAYORDER=
